# xmcd
#
# Track frame offsets: 
#        150
#        9744
#        23026
#        38172
#        50226
#        68396
#        80264
#        100532
#        114641
#        138145
#        154409
#
# Disc length: 2321 seconds
#
# Revision: 5
# Processed by: cddbd v1.5.2PL0 Copyright (c) Steve Scherf et al.
# Submitted via: ExactAudioCopy v1.0b3
#
DISCID=82090f0b
DTITLE=The xx - xx
DYEAR=2009
DGENRE=Pop, Rock - Pop Rock, Indie Rock
TTITLE0=Intro
TTITLE1=VCR
TTITLE2=Crystalised
TTITLE3=Islands
TTITLE4=Heart Skipped A Beat
TTITLE5=Fantasy
TTITLE6=Shelter
TTITLE7=Basic Space
TTITLE8=Infinity
TTITLE9=Night Time
TTITLE10=Stars
EXTD=
EXTT0=
EXTT1=
EXTT2=
EXTT3=
EXTT4=
EXTT5=
EXTT6=
EXTT7=
EXTT8=
EXTT9=
EXTT10=
PLAYORDER=
